<svg width="15" height="19" viewBox="0 0 15 19" fill="none" xmlns="http://www.w3.org/2000/svg">
<path d="M7.0381 7.3448V8.86398H7.44187C7.98935 8.86398 8.26282 8.60765 8.26282 8.09528C8.26282 7.59479 7.99216 7.34482 7.45033 7.34482H7.0381V7.3448ZM12.4684 5.37405V1.13138C12.4684 0.506321 11.9979 0 11.4176 0H3.01096C2.43068 0 1.96015 0.506304 1.96015 1.13138V5.37405H0V12.4451H1.96015V16.9706C1.96015 17.5954 2.43066 18.102 3.01096 18.102H11.4176C11.9979 18.102 12.4684 17.5954 12.4684 16.9706V12.4451H14.4094V5.37405H12.4684ZM11.4176 1.41422V5.37405H3.01112L3.01101 1.41422H11.4176H11.4176ZM9.24232 8.05579C9.24232 8.53777 9.07812 8.92422 8.74975 9.2148C8.42137 9.50566 8.01089 9.6449 7.51785 9.63273H7.03812V11.2734H6.10685V6.56698H7.61122C8.69843 6.56698 9.24229 7.06335 9.24229 8.05579H9.24232ZM2.50057 10.1948L2.17888 11.2735H1.16848L2.76854 6.56703H3.8636L5.43263 11.2735H4.41671L4.08938 10.1948H2.5006H2.50057ZM7.21436 17.5363C6.92422 17.5363 6.68869 17.283 6.68869 16.9706C6.68869 16.6582 6.92422 16.4049 7.21436 16.4049C7.5045 16.4049 7.73977 16.6582 7.73977 16.9706C7.73977 17.283 7.5045 17.5363 7.21436 17.5363ZM11.4176 15.8393H3.01098L3.01109 12.4452H11.4175V15.8393H11.4176ZM12.4268 9.2148C12.0987 9.50566 11.6879 9.6449 11.1951 9.63273H10.7154V11.2734H9.78416V6.56698H11.288C12.3758 6.56698 12.9192 7.06333 12.9192 8.05579C12.9191 8.53777 12.7552 8.92422 12.4268 9.2148H12.4268ZM11.1274 7.3448H10.7154V8.86398H11.1187C11.6661 8.86398 11.9401 8.60765 11.9401 8.09528C11.9402 7.59479 11.6692 7.3448 11.1274 7.3448ZM3.30487 7.37825H3.27921C3.26792 7.51579 3.24279 7.64867 3.20327 7.77628L2.70366 9.42005H3.86929L3.37263 7.78846C3.34054 7.68513 3.31798 7.54839 3.30488 7.37827L3.30487 7.37825Z" fill="white"/>
</svg>
