<svg width="20" height="17" viewBox="0 0 20 17" fill="none" xmlns="http://www.w3.org/2000/svg">
<path d="M17.6562 0H2.34375C1.05141 0 0 1.05141 0 2.34375V4.27715L8.60121 10.6748C9.01953 10.986 9.50977 11.1416 10 11.1416C10.4902 11.1416 10.9805 10.986 11.3988 10.6748L20 4.27715V2.34375C20 1.05141 18.9486 0 17.6562 0ZM18.4375 3.49203L10.4663 9.42109C10.1874 9.62855 9.81262 9.62855 9.53375 9.42109L1.5625 3.49203V2.34375C1.5625 1.91297 1.91297 1.5625 2.34375 1.5625H17.6562C18.087 1.5625 18.4375 1.91297 18.4375 2.34375V3.49203ZM18.4375 7.38668L20 6.22449V13.9062C20 15.1986 18.9486 16.25 17.6562 16.25H2.34375C1.05141 16.25 0 15.1986 0 13.9062V6.22449L1.5625 7.38668V13.9062C1.5625 14.337 1.91297 14.6875 2.34375 14.6875H17.6562C18.087 14.6875 18.4375 14.337 18.4375 13.9062V7.38668Z" fill="white"/>
</svg>
