<svg width="14" height="14" viewBox="0 0 14 14" fill="none" xmlns="http://www.w3.org/2000/svg">
<path d="M6.902 5.608C6.122 5.608 5.488 6.232 5.488 7C5.488 7.768 6.122 8.392 6.902 8.392C7.682 8.392 8.317 7.768 8.317 7C8.317 6.232 7.683 5.608 6.902 5.608ZM13 7.528V6.568H11.195C11.109 5.78033 10.8049 5.03228 10.317 4.408L11.634 3.112L10.951 2.44L9.683 3.688C9.052 3.18304 8.29104 2.86687 7.488 2.776V1H6.512V2.776C5.682 2.872 4.952 3.208 4.317 3.688L3.05 2.44L2.367 3.112L3.684 4.408C3.16852 5.01597 2.86088 5.7728 2.806 6.568H1V7.528H2.805C2.902 8.344 3.195 9.064 3.683 9.64L2.366 10.936L3.049 11.608L4.317 10.36C4.902 10.84 5.683 11.176 6.512 11.224V13H7.488V11.224C8.2846 11.1409 9.04346 10.8421 9.683 10.36L10.951 11.608L11.634 10.936L10.317 9.64C10.805 9.064 11.147 8.296 11.195 7.528H13ZM6.902 10.264C5.098 10.264 3.585 8.824 3.585 7C3.585 5.176 5.049 3.736 6.902 3.736C8.756 3.736 10.219 5.176 10.219 7C10.219 8.824 8.756 10.264 6.902 10.264Z" fill="white" stroke="white" stroke-width="0.3"/>
</svg>
