<svg width="145" height="48" viewBox="0 0 145 48" fill="none" xmlns="http://www.w3.org/2000/svg">
<path d="M0 18V21.5V33V47.5H145V41.5V38H143V35.5H140V33.5H134.5V35.5H129.5V38H127V41H124.5V40H122.5V38H121L119.5 36.5V35H116.5L115.5 33H113.5V31H110L108 28.5H106.5V26V23.5H104.5V19.5H102.5V17L101 15.5H88L87 18H84.5L83 19.5V20.5V23.5H81V21.5L79.5 19.5V18H76V15.5H74V13H63.5V11.5H61.5L60.5 9.5L59.5 8.5V6.5H56V5L54.5 3.5L53.5 2H51.5L50 0L47.5 2L46.5 3.5L45 5L43 6.5L42 8.5H40.5V9.5H38V11.5H31L30 10.5L28 9.5L27 6.5L24 5L21.5 6.5H20V8.5H16.5V9.5H14.5V11.5H10L8 9.5H3V14.5H1V18H0Z" fill="url(#paint0_linear)"/>
<defs>
<linearGradient id="paint0_linear" x1="72.5" y1="0" x2="72.5" y2="47.5" gradientUnits="userSpaceOnUse">
<stop stop-color="#0038B1"/>
<stop offset="1" stop-color="#7FA7FF"/>
</linearGradient>
</defs>
</svg>
